<mxfile host="app.diagrams.net" modified="2023-10-18T11:15:07.591Z" agent="Mozilla/5.0 (X11; Linux x86_64; rv:109.0) Gecko/20100101 Firefox/115.0" etag="Ty2nwFfl_0gijKmabbMA" version="22.0.4" type="device">
  <diagram name="Página-1" id="H1gAe4TEgG37sk8PaRr4">
    <mxGraphModel dx="1434" dy="684" grid="1" gridSize="10" guides="1" tooltips="1" connect="1" arrows="1" fold="1" page="1" pageScale="1" pageWidth="1169" pageHeight="827" math="0" shadow="0">
      <root>
        <mxCell id="0" />
        <mxCell id="1" parent="0" />
        <mxCell id="4FeAwzVaXCOxadstKzMB-12" value="" style="edgeStyle=orthogonalEdgeStyle;rounded=0;orthogonalLoop=1;jettySize=auto;html=1;curved=1;entryX=0.25;entryY=1;entryDx=0;entryDy=0;" edge="1" parent="1" source="3jQ3pkgaZVPvUWSegzT8-1" target="4FeAwzVaXCOxadstKzMB-6">
          <mxGeometry relative="1" as="geometry">
            <mxPoint x="289" y="270" as="targetPoint" />
          </mxGeometry>
        </mxCell>
        <mxCell id="3jQ3pkgaZVPvUWSegzT8-1" value="&lt;div&gt;&lt;b&gt;Información de&amp;nbsp;&lt;/b&gt;&lt;/div&gt;&lt;div&gt;&lt;b&gt;identificación&amp;nbsp;&lt;/b&gt;&lt;/div&gt;&lt;div&gt;&lt;b&gt;de usuario&lt;/b&gt;&lt;/div&gt;&lt;div&gt;&lt;b&gt;&lt;br&gt;&lt;/b&gt;&lt;/div&gt;&lt;div&gt;&lt;b&gt;&lt;br&gt;&lt;/b&gt;&lt;/div&gt;" style="sketch=0;pointerEvents=1;shadow=0;dashed=0;html=1;strokeColor=none;labelPosition=center;verticalLabelPosition=bottom;verticalAlign=top;outlineConnect=0;align=center;shape=mxgraph.office.users.user;fillColor=#2072B8;" parent="1" vertex="1">
          <mxGeometry x="190" y="290" width="46" height="50" as="geometry" />
        </mxCell>
        <mxCell id="4FeAwzVaXCOxadstKzMB-14" value="" style="edgeStyle=orthogonalEdgeStyle;rounded=0;orthogonalLoop=1;jettySize=auto;html=1;" edge="1" parent="1" source="3jQ3pkgaZVPvUWSegzT8-10" target="4FeAwzVaXCOxadstKzMB-5">
          <mxGeometry relative="1" as="geometry" />
        </mxCell>
        <mxCell id="3jQ3pkgaZVPvUWSegzT8-10" value="&lt;b&gt;Firma digital&lt;/b&gt;" style="rounded=0;whiteSpace=wrap;html=1;fillColor=#ffe6cc;strokeColor=#d79b00;" parent="1" vertex="1">
          <mxGeometry x="465" y="220" width="120" height="60" as="geometry" />
        </mxCell>
        <mxCell id="4FeAwzVaXCOxadstKzMB-10" value="" style="edgeStyle=orthogonalEdgeStyle;rounded=0;orthogonalLoop=1;jettySize=auto;html=1;curved=1;entryX=0.5;entryY=0;entryDx=0;entryDy=0;" edge="1" parent="1" source="3jQ3pkgaZVPvUWSegzT8-34" target="4FeAwzVaXCOxadstKzMB-6">
          <mxGeometry relative="1" as="geometry">
            <mxPoint x="370" y="210" as="targetPoint" />
          </mxGeometry>
        </mxCell>
        <mxCell id="3jQ3pkgaZVPvUWSegzT8-34" value="&lt;div&gt;&lt;font style=&quot;font-size: 18px;&quot;&gt;K&lt;/font&gt;&lt;font style=&quot;font-size: 17px;&quot;&gt;&lt;sup&gt;+&lt;/sup&gt;&lt;sub&gt;B&lt;/sub&gt;&lt;/font&gt; Clave pública de Usuario&lt;br&gt;&lt;/div&gt;&lt;div&gt;&lt;br&gt;&lt;/div&gt;" style="points=[[0,0.5,0],[0.24,0,0],[0.5,0.28,0],[0.995,0.475,0],[0.5,0.72,0],[0.24,1,0]];verticalLabelPosition=bottom;sketch=0;html=1;verticalAlign=top;aspect=fixed;align=center;pointerEvents=1;shape=mxgraph.cisco19.key;fillColor=#005073;strokeColor=none;labelPosition=center;" parent="1" vertex="1">
          <mxGeometry x="188" y="150.5" width="50" height="22.5" as="geometry" />
        </mxCell>
        <mxCell id="3jQ3pkgaZVPvUWSegzT8-45" value="" style="edgeStyle=orthogonalEdgeStyle;rounded=0;orthogonalLoop=1;jettySize=auto;html=1;" parent="1" source="3jQ3pkgaZVPvUWSegzT8-37" target="3jQ3pkgaZVPvUWSegzT8-10" edge="1">
          <mxGeometry relative="1" as="geometry" />
        </mxCell>
        <mxCell id="3jQ3pkgaZVPvUWSegzT8-51" value="" style="edgeStyle=orthogonalEdgeStyle;rounded=0;orthogonalLoop=1;jettySize=auto;html=1;" parent="1" source="3jQ3pkgaZVPvUWSegzT8-37" target="3jQ3pkgaZVPvUWSegzT8-10" edge="1">
          <mxGeometry relative="1" as="geometry" />
        </mxCell>
        <mxCell id="3jQ3pkgaZVPvUWSegzT8-37" value="&lt;font style=&quot;font-size: 18px;&quot;&gt;K&lt;/font&gt;&lt;font style=&quot;font-size: 18px;&quot;&gt;&lt;sup&gt;-&lt;/sup&gt;&lt;sub&gt;B&lt;/sub&gt;&lt;/font&gt;&lt;font style=&quot;font-size: 12px;&quot;&gt; Clave privada de CA&lt;br&gt;&lt;/font&gt;" style="points=[[0,0.5,0],[0.24,0,0],[0.5,0.28,0],[0.995,0.475,0],[0.5,0.72,0],[0.24,1,0]];verticalLabelPosition=bottom;sketch=0;html=1;verticalAlign=top;aspect=fixed;align=center;pointerEvents=1;shape=mxgraph.cisco19.key;fillColor=#005073;strokeColor=none;labelPosition=center;" parent="1" vertex="1">
          <mxGeometry x="500" y="340" width="50" height="22.5" as="geometry" />
        </mxCell>
        <mxCell id="3jQ3pkgaZVPvUWSegzT8-49" value="&lt;font style=&quot;font-size: 20px;&quot;&gt;&lt;b&gt;Autoridades de certificación&lt;/b&gt;&lt;/font&gt;" style="text;strokeColor=none;align=center;fillColor=none;html=1;verticalAlign=middle;whiteSpace=wrap;rounded=0;fontColor=#000099;" parent="1" vertex="1">
          <mxGeometry x="80" y="110" width="360" height="30" as="geometry" />
        </mxCell>
        <mxCell id="4FeAwzVaXCOxadstKzMB-5" value="&lt;div style=&quot;font-size: 14px;&quot;&gt;&lt;font style=&quot;font-size: 14px;&quot;&gt;&lt;b&gt;Certificado de la&amp;nbsp;&lt;/b&gt;&lt;/font&gt;&lt;/div&gt;&lt;div style=&quot;font-size: 14px;&quot;&gt;&lt;font style=&quot;font-size: 14px;&quot;&gt;&lt;b&gt;clave pública del usuario&amp;nbsp;&lt;/b&gt;&lt;/font&gt;&lt;/div&gt;&lt;div style=&quot;font-size: 14px;&quot;&gt;&lt;font style=&quot;font-size: 14px;&quot;&gt;&lt;b&gt;firmado por la CA&lt;/b&gt;&lt;/font&gt;&lt;/div&gt;" style="points=[[0.015,0.015,0],[0.25,0,0],[0.5,0,0],[0.75,0,0],[0.985,0.015,0],[1,0.22,0],[1,0.44,0],[1,0.67,0],[0.985,0.89,0],[0,0.22,0],[0,0.44,0],[0,0.67,0],[0.015,0.89,0],[0.25,0.91,0],[0.5,0.91,0],[0.785,0.955,0]];verticalLabelPosition=bottom;sketch=0;html=1;verticalAlign=top;aspect=fixed;align=center;pointerEvents=1;shape=mxgraph.cisco19.x509_certificate;fillColor=#005073;strokeColor=none;" vertex="1" parent="1">
          <mxGeometry x="670" y="226.25" width="50" height="47.5" as="geometry" />
        </mxCell>
        <mxCell id="4FeAwzVaXCOxadstKzMB-13" value="" style="edgeStyle=orthogonalEdgeStyle;rounded=0;orthogonalLoop=1;jettySize=auto;html=1;" edge="1" parent="1" source="4FeAwzVaXCOxadstKzMB-6" target="3jQ3pkgaZVPvUWSegzT8-10">
          <mxGeometry relative="1" as="geometry" />
        </mxCell>
        <mxCell id="4FeAwzVaXCOxadstKzMB-6" value="" style="image;aspect=fixed;perimeter=ellipsePerimeter;html=1;align=center;shadow=0;dashed=0;fontColor=#4277BB;labelBackgroundColor=default;fontSize=12;spacingTop=3;image=img/lib/ibm/blockchain/certificate_authority.svg;" vertex="1" parent="1">
          <mxGeometry x="340" y="220" width="60" height="60" as="geometry" />
        </mxCell>
      </root>
    </mxGraphModel>
  </diagram>
</mxfile>
